<svg xmlns="http://www.w3.org/2000/svg" viewBox="0 0 360 360" role="img"><title>3D 打印</title><defs><linearGradient id="bg" x2="1" y2="1"><stop stop-color="#f5faff"/><stop offset="1" stop-color="#eaf1f7"/></linearGradient></defs><rect width="360" height="360" rx="36" fill="url(#bg)"/><circle cx="302" cy="57" r="56" fill="#fff" opacity=".56"/><ellipse cx="180" cy="309" rx="117" ry="15" fill="#d9e3ef" opacity=".6"/><rect x="75" y="64" width="210" height="239" rx="15" fill="#8d9fc4" /><rect x="89" y="80" width="182" height="197" rx="10" fill="#ecf6ff" /><path d="M107 103L255 103" fill="none" stroke="#637d9b" stroke-width="10" stroke-linecap="round"/><path d="M180 103L180 151" fill="none" stroke="#637d9b" stroke-width="8" stroke-linecap="round"/><rect x="165" y="141" width="30" height="26" rx="7" fill="#bba0df" /><path d="M137 230V195L179 171L222 195V230L179 255Z" fill="#7ecebc"/><path d="M137 195L179 219L222 195M179 219V255" fill="none" stroke="#fff" stroke-width="4"/><path d="M143 207L175 224" fill="none" stroke="#addccb" stroke-width="3" stroke-linecap="round"/><path d="M143 216L175 233" fill="none" stroke="#addccb" stroke-width="3" stroke-linecap="round"/><path d="M143 225L175 242" fill="none" stroke="#addccb" stroke-width="3" stroke-linecap="round"/></svg>
